PathFileType	4	(X/Y/Z)	./resultDataOpenSim/trcMotMarkerGrf/sub09/qtm-01-07.trc
DataRate	CameraRate	NumFrames	NumMarkers	Units	OrigDataRate	OrigDataStartFrame	OrigNumFrames
250.000000	250.000000	13	24	m	250.000000	60	472
Frame#	Time	L.Toe.Tip			R.Toe.Tip			L.Ankle.Lat			R.Ankle.Lat			L.Ankle.Med			R.Ankle.Med			L.Heel			R.Heel			L.Knee.Lat			R.Knee.Lat			L.Knee.Med			R.Knee.Med			L.Thigh.Upper			R.Thigh.Upper			L.ASIS			R.ASIS			V.Sacral			L.Acromium			R.Acromium			C7			L.Elbow			R.Elbow			L.Wrist.Lat			R.Wrist.Lat
		X1	Y1	Z1	X2	Y2	Z2	X3	Y3	Z3	X4	Y4	Z4	X5	Y5	Z5	X6	Y6	Z6	X7	Y7	Z7	X8	Y8	Z8	X9	Y9	Z9	X10	Y10	Z10	X11	Y11	Z11	X12	Y12	Z12	X13	Y13	Z13	X14	Y14	Z14	X15	Y15	Z15	X16	Y16	Z16	X17	Y17	Z17	X18	Y18	Z18	X19	Y19	Z19	X20	Y20	Z20	X21	Y21	Z21	X22	Y22	Z22	X23	Y23	Z23	X24	Y24	Z24

60	0.236	-1.4653708	0.069641316	-0.023596523	-0.66726634	0.040046419	0.090288884	-1.4830084	0.22231808	-0.086182798	-0.81323205	0.053136881	0.11986275	-1.4614933	0.21239361	0.0083964787	-0.80785135	0.09223959	0.03195974	-1.5452826	0.26991431	-0.043311566	-0.88206475	0.031190486	0.072382055	-1.1185026	0.4256372	-0.10789155	-0.80457523	0.50742681	0.1852272	-1.1035671	0.41150212	0.016493171	-0.81804902	0.4952861	0.058719286	-1.0468169	0.82939078	-0.12565678	-1.0167789	0.85486984	0.24668042	-0.95174101	0.91360239	-0.071806907	-0.94483346	0.94172204	0.16733123	-1.1157042	0.98075203	0.052775606	-0.93541703	1.3783547	-0.10729616	-0.97944183	1.380902	0.21820004	-1.0227282	1.4343419	0.049369044	-1.0417017	1.0214414	-0.18120733	-1.1359479	1.0544379	0.30178317	-0.84038671	0.84342845	-0.15899644	-1.0231264	0.80821119	0.32929532
61	0.24	-1.4556483	0.073018294	-0.025377221	-0.66720436	0.039955474	0.090126299	-1.4716676	0.22623735	-0.086451762	-0.81284903	0.053268845	0.1194975	-1.451581	0.21545899	0.0086753496	-0.80764951	0.09215524	0.031842417	-1.5328409	0.27466772	-0.04423614	-0.88217464	0.031161688	0.072360807	-1.1046485	0.42478321	-0.10799079	-0.80030812	0.50741532	0.18524689	-1.0907349	0.41134123	0.017212555	-0.81398596	0.49524576	0.058547952	-1.0398555	0.82960406	-0.12522517	-1.0102612	0.85559195	0.24702071	-0.94534656	0.91446186	-0.071414133	-0.93806418	0.94247151	0.16785907	-1.1092157	0.9816562	0.053002577	-0.92911816	1.3791079	-0.10706633	-0.97280743	1.3817009	0.21845397	-1.0163644	1.4352386	0.049652208	-1.0357346	1.0224875	-0.18116008	-1.1289131	1.0548718	0.30214318	-0.83658648	0.84235064	-0.15927948	-1.0149626	0.80899209	0.32922702
62	0.244	-1.4451373	0.076372537	-0.027296058	-0.66714539	0.039867756	0.090047724	-1.46004	0.23003884	-0.086633039	-0.81272289	0.053228652	0.11950661	-1.4413912	0.2183468	0.0091380576	-0.80741422	0.09210504	0.031764897	-1.5204075	0.27889609	-0.044579117	-0.88229748	0.031081175	0.072455112	-1.0908388	0.42408576	-0.10778809	-0.79611734	0.50743451	0.18523459	-1.0792033	0.4113977	0.0179907	-0.81013821	0.49521404	0.058427823	-1.03288	0.82992954	-0.12470765	-1.0037614	0.85639021	0.2473226	-0.93906825	0.91535634	-0.071108111	-0.93151513	0.94324081	0.168301	-1.1027899	0.98263268	0.05319106	-0.92290144	1.3799033	-0.10688239	-0.96618886	1.3825667	0.21868788	-1.009961	1.4362098	0.049999632	-1.0297822	1.0235197	-0.18114735	-1.1218727	1.0553556	0.30255666	-0.83282003	0.84132231	-0.15959301	-1.0067712	0.80984701	0.32911174
63	0.248	-1.4338936	0.079622291	-0.029252007	-0.66707223	0.039782672	0.089991314	-1.4481034	0.23367291	-0.086740165	-0.81283935	0.053084893	0.11986768	-1.4306018	0.2210857	0.009605958	-0.80712362	0.092084078	0.031706904	-1.5081082	0.28272003	-0.044366918	-0.88242422	0.030934769	0.072706441	-1.0771213	0.42357407	-0.10730311	-0.7919389	0.50741406	0.18516342	-1.0688112	0.41162492	0.01878771	-0.80647318	0.49517993	0.058374776	-1.0259625	0.83035153	-0.1241991	-0.99724497	0.85727837	0.24760648	-0.93286048	0.91628937	-0.070877424	-0.92516321	0.94404004	0.168649	-1.096508	0.98369635	0.053349078	-0.91668635	1.380748	-0.10672288	-0.95957495	1.3834962	0.21888823	-1.0035487	1.4372585	0.050382276	-1.0238383	1.0246322	-0.18096399	-1.1148454	1.055874	0.30300475	-0.82910063	0.8403452	-0.15994181	-0.9985191	0.81078208	0.32894874
64	0.252	-1.4219389	0.082735712	-0.031185829	-0.6669881	0.039701774	0.089918295	-1.4358732	0.23710484	-0.08676435	-0.81319314	0.052929108	0.12051442	-1.4186517	0.22377046	0.0097902573	-0.80679075	0.092082377	0.031647049	-1.4958846	0.28620711	-0.04374811	-0.88254491	0.030719454	0.073129428	-1.0634867	0.42328705	-0.10665176	-0.78787511	0.50732384	0.18509231	-1.0584568	0.4119705	0.019595976	-0.80297061	0.49513685	0.058394128	-1.0191744	0.83085453	-0.12379292	-0.99055018	0.85829337	0.24791093	-0.92668655	0.91727901	-0.070705241	-0.91890782	0.94489281	0.16890327	-1.0903645	0.98485223	0.053506473	-0.91038266	1.3816584	-0.106559	-0.952959	1.3844913	0.21904672	-0.99715988	1.4383806	0.050776313	-1.0179091	1.0258799	-0.18050337	-1.1078506	1.0564391	0.30346721	-0.82543569	0.83943117	-0.16032543	-0.99022564	0.81179703	0.32873309
65	0.256	-1.4093054	0.085698029	-0.033071777	-0.66691175	0.039621723	0.089829616	-1.4233782	0.24031772	-0.086688388	-0.8136749	0.052848904	0.12122946	-1.4050119	0.22649746	0.0094440337	-0.80645559	0.092088051	0.031576527	-1.4835609	0.2893438	-0.042926261	-0.88264956	0.030463944	0.073661341	-1.0499118	0.42324086	-0.10591583	-0.78402439	0.50714816	0.18507201	-1.0470704	0.41238727	0.020448173	-0.79961016	0.49507833	0.058458395	-1.0125177	0.83144622	-0.1234965	-0.98349783	0.85947113	0.24828241	-0.92056057	0.91834799	-0.070582492	-0.91267821	0.94582692	0.16907063	-1.0843018	0.98609725	0.053687638	-0.90402878	1.382653	-0.10639551	-0.94634969	1.385558	0.21917059	-0.99080921	1.4395684	0.051184643	-1.0120406	1.0272067	-0.17994204	-1.1009052	1.0570862	0.30391114	-0.82183289	0.83860018	-0.16074102	-0.98191751	0.81289654	0.32846231
66	0.26	-1.3960589	0.088480393	-0.034881023	-0.66686572	0.03954022	0.089751353	-1.4106295	0.24330099	-0.08651587	-0.81408632	0.05287006	0.1217521	-1.3899235	0.22920816	0.008657979	-0.8061581	0.092090971	0.031500991	-1.4710075	0.29209672	-0.04207868	-0.88273187	0.030237295	0.074138976	-1.0363638	0.42343994	-0.1051294	-0.780424	0.50688599	0.18511513	-1.0343252	0.41285973	0.021375517	-0.79636776	0.49499137	0.058526658	-1.0059384	0.8321486	-0.12326609	-0.97619232	0.8608034	0.24871099	-0.91450467	0.91950739	-0.070501635	-0.90645886	0.94686971	0.16916541	-1.0782659	0.98742346	0.05389455	-0.89779421	1.3837386	-0.10627392	-0.93976405	1.3867019	0.21927523	-0.98447874	1.4408151	0.051656428	-1.0063097	1.028503	-0.17960521	-1.0940122	1.057842	0.30431274	-0.81829752	0.83787297	-0.16118335	-0.97360475	0.81408822	0.32814251
67	0.264	-1.3822782	0.091049892	-0.036586255	-0.6668634	0.039469314	0.089705432	-1.3976102	0.24603471	-0.086273023	-0.81428572	0.052946603	0.12196743	-1.3745869	0.23167675	0.0079117507	-0.80589572	0.092089954	0.031432313	-1.4582006	0.29445132	-0.04133153	-0.88279485	0.030111969	0.074385676	-1.0228165	0.42389558	-0.10432018	-0.77706255	0.50655769	0.18521357	-1.0203974	0.41341028	0.022378347	-0.79323075	0.49486368	0.05858515	-0.99937808	0.83297718	-0.12306594	-0.96925409	0.86221257	0.249074	-0.90850958	0.92075297	-0.070444682	-0.90026266	0.9480351	0.1692031	-1.0722361	0.9888161	0.054123299	-0.8918137	1.384907	-0.10622698	-0.93321196	1.3879224	0.21936789	-0.97812998	1.4421157	0.052263413	-1.0007196	1.0297685	-0.17951852	-1.0871609	1.0587062	0.30467849	-0.81482829	0.83726148	-0.16164558	-0.96528313	0.81537817	0.32778573
68	0.268	-1.3680281	0.09338807	-0.038189377	-0.66690294	0.039427892	0.089694764	-1.3843032	0.24848207	-0.085988263	-0.81431277	0.053034492	0.12196267	-1.3601326	0.23373596	0.0076489619	-0.80563072	0.092093505	0.031380937	-1.4452132	0.29641388	-0.040720812	-0.88285252	0.030102132	0.074362257	-1.0092605	0.42461949	-0.10352182	-0.77390165	0.50619582	0.18535012	-1.0057142	0.41408293	0.023430652	-0.79020873	0.49469711	0.058663217	-0.99280159	0.83393213	-0.12287083	-0.96357083	0.86357818	0.2491909	-0.90254427	0.92207692	-0.070387214	-0.89409903	0.94931665	0.16920285	-1.0662235	0.99025881	0.054364307	-0.88606566	1.3861523	-0.10624398	-0.92669587	1.3892116	0.21944866	-0.97175526	1.4434667	0.053007479	-0.99515817	1.0311415	-0.17929203	-1.0803375	1.0596639	0.30502879	-0.81142151	0.83676933	-0.16212074	-0.95695045	0.81676883	0.3274026
69	0.272	-1.35336	0.09548582	-0.039706381	-0.6669733	0.03942063	0.089713222	-1.370727	0.25059783	-0.08568005	-0.81432511	0.05313256	0.12191333	-1.3468136	0.23539143	0.0079511621	-0.80536075	0.092108196	0.03135264	-1.43216	0.29800023	-0.040179844	-0.88292104	0.03015652	0.07418999	-0.99572561	0.42560219	-0.10274629	-0.77089867	0.50583087	0.18549566	-0.99094238	0.41491353	0.024491413	-0.78732974	0.49450894	0.058818622	-0.98620222	0.83500336	-0.12266568	-0.95957214	0.86482788	0.24897051	-0.89659478	0.92347526	-0.070313666	-0.8879662	0.95069976	0.16919472	-1.0602489	0.99174655	0.054589003	-0.88039966	1.3874808	-0.10628161	-0.9202202	1.3905642	0.21952203	-0.96541859	1.4448707	0.053747729	-0.98950704	1.032758	-0.1785156	-1.0735322	1.0607033	0.30537387	-0.80808286	0.8363998	-0.16260445	-0.94861484	0.81825773	0.32699735
70	0.276	-1.3383354	0.097333117	-0.041126389	-0.66706542	0.039437477	0.089759301	-1.3569298	0.25235619	-0.085358714	-0.814417	0.05324396	0.12192503	-1.334356	0.2366893	0.0086823123	-0.80513446	0.092133821	0.031348051	-1.419087	0.29922014	-0.039644637	-0.88300539	0.030214604	0.074016894	-0.98227266	0.42680382	-0.10196445	-0.76802485	0.50549069	0.1856156	-0.97666094	0.41590304	0.0255246	-0.78462209	0.49432357	0.059101137	-0.97959906	0.83618278	-0.12246591	-0.95662358	0.86602818	0.24852906	-0.8906861	0.92494704	-0.070223399	-0.88185687	0.9521736	0.16921067	-1.054317	0.9932898	0.054763296	-0.87466362	1.3889003	-0.1063014	-0.91379114	1.3919856	0.21959384	-0.95922226	1.4463406	0.054275223	-0.98375503	1.0346341	-0.17713055	-1.0667421	1.061819	0.30571592	-0.80483445	0.83616046	-0.16309824	-0.94028981	0.81984212	0.32657133
71	0.28	-1.3230505	0.098920336	-0.042398204	-0.66717721	0.039468842	0.089836173	-1.3429575	0.25377194	-0.085031166	-0.81456803	0.053352268	0.12199577	-1.322238	0.23767832	0.0096237099	-0.80498518	0.092170042	0.03136562	-1.4059389	0.30007165	-0.039126577	-0.88309685	0.030248963	0.073911472	-0.96893619	0.42817949	-0.10113238	-0.76527653	0.50519968	0.18569791	-0.96298012	0.41703127	0.026524044	-0.78208144	0.4941616	0.059500348	-0.97302183	0.83747047	-0.12230372	-0.95337103	0.86734844	0.24813296	-0.88485139	0.92649786	-0.070117244	-0.87573727	0.95372537	0.16925599	-1.0484095	0.99489889	0.05487986	-0.8688497	1.3904121	-0.10629894	-0.90741403	1.3934837	0.21966631	-0.95323931	1.4478934	0.054453495	-0.97801936	1.0366497	-0.17550344	-1.0599727	1.0630084	0.30606027	-0.80170593	0.83606185	-0.16360919	-0.93198975	0.82152508	0.32613168
72	0.284	-1.3076197	0.10024253	-0.043451551	-0.66730474	0.03951046	0.089939999	-1.3288414	0.2548849	-0.0846984	-0.81472728	0.053441709	0.12208433	-1.3095121	0.23849789	0.010413051	-0.80490149	0.092216466	0.031405207	-1.3926565	0.30055495	-0.03864576	-0.88318239	0.03026275	0.073866758	-0.95569123	0.42971554	-0.10025146	-0.76267568	0.50496382	0.1857793	-0.94967015	0.41829956	0.027515533	-0.77966103	0.49402806	0.05993382	-0.96649163	0.8388722	-0.12218253	-0.9489102	0.86890662	0.24797023	-0.8790766	0.92814584	-0.069981236	-0.86949194	0.9553239	0.16926896	-1.0425065	0.99656551	0.054969482	-0.86310784	1.3920064	-0.10629886	-0.90109817	1.39506	0.21974396	-0.9474719	1.4495339	0.054289269	-0.97244358	1.0386543	-0.17411226	-1.0532313	1.0642664	0.30641159	-0.79871071	0.83610891	-0.16414347	-0.92372719	0.82331295	0.32568899
